# File created by Blade
# Date/Time:  Wed Apr 08 17:00:23 2015
#---------------------------------------------------------
:version 1.10
:name HOM
:units
  mass 1.0
  length 1.000000
  angle deg
:documentation
     Acclaim Skeleton File
:root
   axis xyz
   order TX TY TZ RX RY RZ
   position 0.000000 0.000000 0.000000
   orientation 0 0 0
:bonedata
   begin
      id 1
      name Spine_dum
      direction 0.000000 1.000000 0.000000
      length 5.893853
      axis 0.0 0.0 0.0 xyz
   end
   begin
      id 2
      name LeftUpLeg_dum
      direction 1.000000 0.000000 0.000000
      length 3.697939
      axis 0.0 0.0 0.0 xyz
   end
   begin
      id 3
      name RightUpLeg_dum
      direction -1.000000 0.000000 0.000000
      length 3.697939
      axis 0.0 0.0 0.0 xyz
   end
   begin
      id 4
      name Spine
      direction 0.000000 1.000000 0.000000
      length 0.000000
      axis 0.0 0.0 0.0 xyz
      dof rx ry rz
   end
   begin
      id 5
      name Spine_dum1
      direction 0.000000 1.000000 0.000000
      length 16.447146
      axis 0.0 0.0 0.0 xyz
   end
   begin
      id 6
      name Spine_dum2
      direction 0.000000 1.000000 0.000000
      length 10.900383
      axis 0.0 0.0 0.0 xyz
   end
   begin
      id 7
      name Spine_dum3
      direction 0.000000 1.000000 0.000000
      length 10.900383
      axis 0.0 0.0 0.0 xyz
   end
   begin
      id 8
      name Head
      direction 0.000000 1.000000 0.000000
      length 4.527550
      axis 0.0 0.0 0.0 xyz
      dof rx ry rz
   end
   begin
      id 9
      name LeftShoulder
      direction 1.000000 0.000000 0.000000
      length 8.219464
      axis 0.0 0.0 -90.0 xyz
      dof rx ry rz
   end
   begin
      id 10
      name LeftArm
      direction 1.000000 0.000000 0.000000
      length 11.094937
      axis 0.0 0.0 -90.0 xyz
      dof rx ry rz
   end
   begin
      id 11
      name LeftForeArm
      direction 1.000000 0.000000 0.000000
      length 9.103875
      axis 0.0 0.0 -90.0 xyz
      dof ry rz rx
   end
   begin
      id 12
      name LeftHand
      direction 0.000000 0.000000 0.000000
      length 0.000000
      axis 0.0 0.0 -90.0 xyz
      dof rx ry rz
   end
   begin
      id 13
      name LeftHand_dum1
      direction 0.000000 0.000000 0.000000
      length 0.000000
      axis 0.0 0.0 -90.0 xyz
   end
   begin
      id 14
      name LeftHand_dum2
      direction 1.000000 0.000000 0.000000
      length 3.937000
      axis 0.0 0.0 -90.0 xyz
   end
   begin
      id 15
      name LeftHandThumb1
      direction 0.000000 0.000000 1.000000
      length 3.937000
      axis 0.0 0.0 -90.0 xyz
      dof rx rz ry
   end
   begin
      id 16
      name RightShoulder
      direction -1.000000 0.000000 0.000000
      length 8.219464
      axis 0.0 0.0 90.0 xyz
      dof rx ry rz
   end
   begin
      id 17
      name RightArm
      direction -1.000000 0.000000 0.000000
      length 11.094937
      axis 0.0 0.0 90.0 xyz
      dof rx ry rz
   end
   begin
      id 18
      name RightForeArm
      direction -1.000000 0.000000 0.000000
      length 9.103875
      axis 0.0 0.0 90.0 xyz
      dof ry rz rx
   end
   begin
      id 19
      name RightHand
      direction 0.000000 0.000000 0.000000
      length 0.000000
      axis 0.0 0.0 90.0 xyz
      dof rx ry rz
   end
   begin
      id 20
      name RightHand_dum1
      direction 0.000000 0.000000 0.000000
      length 0.000000
      axis 0.0 0.0 90.0 xyz
   end
   begin
      id 21
      name RightHand_dum2
      direction -1.000000 0.000000 0.000000
      length 3.937000
      axis 0.0 0.0 90.0 xyz
   end
   begin
      id 22
      name RightHandThumb1
      direction 0.000000 0.000000 1.000000
      length 3.937000
      axis 0.0 0.0 90.0 xyz
      dof rx rz ry
   end
   begin
      id 23
      name LeftUpLeg
      direction 0.000000 -1.000000 0.000000
      length 16.181467
      axis 0.0 0.0 0.0 xyz
      dof rx ry rz
   end
   begin
      id 24
      name LeftLeg
      direction 0.000000 -1.000000 0.000000
      length 16.501392
      axis 0.0 0.0 0.0 xyz
      dof rx ry rz
   end
   begin
      id 25
      name LeftFoot
      direction 0.000000 -0.258819 0.965926
      length 6.408245
      axis 15.0 0.0 0.0 xyz
      dof rx ry rz
   end
   begin
      id 26
      name LeftToeBase
      direction 0.000000 0.000000 1.000000
      length 2.952750
      axis 0.0 0.0 0.0 xyz
      dof rx ry rz
   end
   begin
      id 27
      name RightUpLeg
      direction 0.000000 -1.000000 0.000000
      length 16.181467
      axis 0.0 0.0 0.0 xyz
      dof rx ry rz
   end
   begin
      id 28
      name RightLeg
      direction 0.000000 -1.000000 0.000000
      length 16.501392
      axis 0.0 0.0 0.0 xyz
      dof rx ry rz
   end
   begin
      id 29
      name RightFoot
      direction 0.000000 -0.258819 0.965926
      length 6.408245
      axis 15.0 0.0 0.0 xyz
      dof rx ry rz
   end
   begin
      id 30
      name RightToeBase
      direction 0.000000 0.000000 1.000000
      length 2.952750
      axis 0.0 0.0 0.0 xyz
      dof rx ry rz
   end
:hierarchy
   begin
      root Spine_dum LeftUpLeg_dum RightUpLeg_dum
      Spine_dum Spine
      LeftUpLeg_dum LeftUpLeg
      RightUpLeg_dum RightUpLeg
      Spine Spine_dum1 Spine_dum2 Spine_dum3
      Spine_dum1 Head
      Spine_dum2 LeftShoulder
      Spine_dum3 RightShoulder
      LeftShoulder LeftArm
      LeftArm LeftForeArm
      LeftForeArm LeftHand
      LeftHand LeftHand_dum1 LeftHand_dum2
      LeftHand_dum1 LeftHandThumb1
      RightShoulder RightArm
      RightArm RightForeArm
      RightForeArm RightHand
      RightHand RightHand_dum1 RightHand_dum2
      RightHand_dum1 RightHandThumb1
      LeftUpLeg LeftLeg
      LeftLeg LeftFoot
      LeftFoot LeftToeBase
      RightUpLeg RightLeg
      RightLeg RightFoot
      RightFoot RightToeBase
   end

# File created by Blade
# Date/Time:  Wed Apr 08 17:00:17 2015
# Frame Rate: 120.000 fps
#------------------------------------------------------
:FULLY-SPECIFIED
:DEGREES
78
root 2.319718 35.908239 2.409167 -83.671506 -88.092164 76.138935
Spine 12.041795 5.029972 -2.815482
Head -2.673851 -2.433377 2.152049
LeftShoulder -5.449563 11.963560 23.842754
LeftArm 30.520093 -1.738891 -56.484006
LeftForeArm 6.801767 -0.000000 64.377739
LeftHand -15.374873 0.000000 -9.588966
LeftHandThumb1 -26.253704 0.000000 33.147579
RightShoulder -14.725059 -35.996241 -14.636533
RightArm 68.882270 44.315948 64.247827
RightForeArm 14.802988 -0.000000 15.575011
RightHand 1.399369 -0.000000 -1.959570
RightHandThumb1 -24.326973 -0.000000 -32.862282
LeftUpLeg 11.375234 12.734699 6.523482
LeftLeg 7.542521 -0.000000 -0.000000
LeftFoot -11.693191 3.066817 -11.203201
LeftToeBase 9.082050 -0.000000 -0.000000
RightUpLeg 11.819015 -7.469148 -10.999840
RightLeg 3.564611 -0.000000 -0.000000
RightFoot -10.976835 1.835345 18.811261
RightToeBase 14.407452 -0.000000 -0.000000
79
root 2.327469 35.907756 2.414938 -82.439550 -88.072368 74.876022
Spine 12.010980 5.041484 -2.830824
Head -2.747761 -2.596840 2.204286
LeftShoulder -5.397476 11.944457 23.889823
LeftArm 31.323827 -0.259575 -56.485336
LeftForeArm 6.010545 -0.000000 65.738110
LeftHand -15.466240 0.000000 -9.490091
LeftHandThumb1 -26.253704 0.000000 33.147579
RightShoulder -14.412385 -35.849372 -14.729815
RightArm 69.154746 43.934335 64.093149
RightForeArm 14.785828 -0.000000 15.917025
RightHand 1.406598 0.000000 -1.848266
RightHandThumb1 -24.326973 -0.000000 -32.862282
LeftUpLeg 11.370988 12.710123 6.506118
LeftLeg 7.566949 -0.000000 -0.000000
LeftFoot -11.691701 3.054374 -11.162928
LeftToeBase 9.061090 -0.000000 -0.000000
RightUpLeg 11.850158 -7.514697 -11.030701
RightLeg 3.562791 -0.000000 -0.000000
RightFoot -10.968781 1.847296 18.820168
RightToeBase 14.413830 -0.000000 -0.000000
80
root 2.332932 35.907296 2.415674 -84.354324 -88.053058 76.783854
Spine 11.937117 5.179099 -2.886339
Head -2.809798 -2.787487 2.288081
LeftShoulder -5.324471 11.933712 23.950866
LeftArm 32.183538 1.194111 -56.428505
LeftForeArm 5.362444 -0.000000 67.044136
LeftHand -15.549991 -0.000000 -9.518886
LeftHandThumb1 -26.253704 0.000000 33.147579
RightShoulder -14.123802 -35.772530 -14.806815
RightArm 69.496985 43.547524 64.043526
RightForeArm 14.804024 -0.000000 16.259722
RightHand 1.558888 -0.000000 -1.772355
RightHandThumb1 -24.326973 -0.000000 -32.862282
LeftUpLeg 11.391598 12.822061 6.497204
LeftLeg 7.557097 -0.000000 -0.000000
LeftFoot -11.672553 2.993666 -11.166528
LeftToeBase 9.087647 -0.000000 -0.000000
RightUpLeg 11.822835 -7.449018 -11.051771
RightLeg 3.580178 -0.000000 -0.000000
RightFoot -10.997186 1.833078 18.795881
RightToeBase 14.425547 -0.000000 -0.000000
81
root 2.342595 35.906715 2.423340 -82.712962 -88.036377 75.090201
Spine 11.950844 5.187338 -2.883462
Head -2.918448 -2.987920 2.312960
LeftShoulder -5.269914 11.928389 23.966969
LeftArm 33.164941 2.654853 -56.279088
LeftForeArm 4.649449 -0.000000 68.307170
LeftHand -15.685815 -0.000000 -9.588340
LeftHandThumb1 -26.253704 0.000000 33.147579
RightShoulder -13.836526 -35.810770 -14.898464
RightArm 70.019622 43.239322 64.095857
RightForeArm 14.802801 -0.000000 16.523023
RightHand 1.730374 0.000000 -1.708940
RightHandThumb1 -24.326973 -0.000000 -32.862282
LeftUpLeg 11.405467 12.764335 6.478523
LeftLeg 7.573876 -0.000000 -0.000000
LeftFoot -11.681539 3.006314 -11.133689
LeftToeBase 9.084756 -0.000000 -0.000000
RightUpLeg 11.881089 -7.534296 -11.089955
RightLeg 3.569142 -0.000000 -0.000000
RightFoot -10.971138 1.864605 18.801997
RightToeBase 14.436648 -0.000000 -0.000000
82
root 2.352142 35.906186 2.429461 -81.971899 -88.016114 74.323847
Spine 11.926156 5.238364 -2.888977
Head -3.026323 -3.228120 2.349053
LeftShoulder -5.175160 11.880946 24.007320
LeftArm 34.151391 4.106627 -56.131278
LeftForeArm 4.003766 -0.000000 69.491269
LeftHand -15.743186 0.000000 -9.704863
LeftHandThumb1 -26.253704 0.000000 33.147579
RightShoulder -13.523456 -35.615811 -15.107515
RightArm 70.285775 42.786296 64.084713
RightForeArm 14.773933 -0.000000 16.845398
RightHand 1.709991 0.000000 -1.630662
RightHandThumb1 -24.326973 -0.000000 -32.862282
LeftUpLeg 11.397685 12.755726 6.457227
LeftLeg 7.595541 -0.000000 -0.000000
LeftFoot -11.678354 2.995549 -11.116024
LeftToeBase 9.085989 -0.000000 -0.000000
RightUpLeg 11.898865 -7.566972 -11.123948
RightLeg 3.569914 -0.000000 -0.000000
RightFoot -10.966975 1.888675 18.813260
RightToeBase 14.499148 -0.000000 -0.000000
83
root 2.361446 35.905737 2.434599 -81.745270 -88.005979 74.072806
Spine 11.904274 5.323388 -2.886774
Head -3.135513 -3.459989 2.382132
LeftShoulder -5.089283 11.800391 24.064466
LeftArm 35.204436 5.585618 -55.971305
LeftForeArm 3.210647 -0.000000 70.613158
LeftHand -15.560460 0.000000 -10.242871
LeftHandThumb1 -26.253704 0.000000 33.147579
RightShoulder -13.243820 -35.709772 -15.211164
RightArm 70.877842 42.515337 64.282024
RightForeArm 14.802162 -0.000000 17.182407
RightHand 1.770618 -0.000000 -1.569248
RightHandThumb1 -24.326973 -0.000000 -32.862282
LeftUpLeg 11.399621 12.750758 6.443879
LeftLeg 7.605486 -0.000000 -0.000000
LeftFoot -11.680671 2.985100 -11.117763
LeftToeBase 9.082981 -0.000000 -0.000000
RightUpLeg 11.909295 -7.590857 -11.149046
RightLeg 3.575675 -0.000000 -0.000000
RightFoot -10.952727 1.913992 18.845679
RightToeBase 14.457293 -0.000000 -0.000000
84
root 2.371555 35.905483 2.439474 -81.348652 -87.989571 73.659894
Spine 11.870933 5.404250 -2.890972
Head -3.238186 -3.701732 2.409938
LeftShoulder -5.005481 11.715976 24.143776
LeftArm 36.345990 7.131398 -55.740442
LeftForeArm 2.301610 0.000000 71.628825
LeftHand -15.639885 0.000000 -10.290271
LeftHandThumb1 -26.253704 0.000000 33.147579
RightShoulder -12.934398 -35.688871 -15.383052
RightArm 71.357928 42.188569 64.469741
RightForeArm 14.730644 0.000000 17.508831
RightHand 1.802686 -0.000000 -1.509972
RightHandThumb1 -24.326973 -0.000000 -32.862282
LeftUpLeg 11.388207 12.739521 6.421530
LeftLeg 7.620124 -0.000000 -0.000000
LeftFoot -11.682302 2.978649 -11.098408
LeftToeBase 9.108392 -0.000000 -0.000000
RightUpLeg 11.913113 -7.601139 -11.173490
RightLeg 3.576436 -0.000000 -0.000000
RightFoot -10.946202 1.917028 18.855684
RightToeBase 14.467724 -0.000000 -0.000000
85
root 2.380507 35.905467 2.444845 -81.161193 -87.978201 73.445652
Spine 11.851817 5.498100 -2.880581
Head -3.335098 -3.979772 2.435450
LeftShoulder -4.863461 11.557162 24.251562
LeftArm 37.435780 8.686987 -55.514501
LeftForeArm 1.445705 -0.000000 72.597447
LeftHand -15.934763 -0.000000 -9.913448
LeftHandThumb1 -26.253704 0.000000 33.147579
RightShoulder -12.647828 -35.646652 -15.540911
RightArm 71.831275 41.854378 64.596960
RightForeArm 14.766256 -0.000000 17.803309
RightHand 1.800236 -0.000000 -1.472642
RightHandThumb1 -24.326973 -0.000000 -32.862282
LeftUpLeg 11.394334 12.737898 6.406618
LeftLeg 7.629632 -0.000000 -0.000000
LeftFoot -11.686691 2.978408 -11.078713
LeftToeBase 9.125327 -0.000000 -0.000000
RightUpLeg 11.924536 -7.613246 -11.198429
RightLeg 3.582645 -0.000000 -0.000000
RightFoot -10.931190 1.938849 18.870460
RightToeBase 14.448874 -0.000000 -0.000000
86
root 2.390177 35.905932 2.448620 -80.242750 -87.957321 72.509750
Spine 11.825023 5.560183 -2.889059
Head -3.436630 -4.245207 2.463451
LeftShoulder -4.718620 11.357659 24.381315
LeftArm 38.530575 10.257669 -55.284341
LeftForeArm 0.519796 -0.000000 73.550240
LeftHand -16.057256 -0.000000 -9.962620
LeftHandThumb1 -26.253704 0.000000 33.147579
RightShoulder -12.309531 -35.577908 -15.731176
RightArm 72.221846 41.543080 64.754541
RightForeArm 14.690915 -0.000000 18.208865
RightHand 1.561363 -0.000000 -1.695427
RightHandThumb1 -24.326973 -0.000000 -32.862282
LeftUpLeg 11.372772 12.716087 6.387761
LeftLeg 7.657626 -0.000000 -0.000000
LeftFoot -11.674313 2.957116 -11.066953
LeftToeBase 9.096973 -0.000000 -0.000000
RightUpLeg 11.937343 -7.665503 -11.224958
RightLeg 3.581753 -0.000000 -0.000000
RightFoot -10.919103 1.945085 18.858212
RightToeBase 14.465789 -0.000000 -0.000000
